Coordinates
version=1
nRows=8
nColumns=63
inDegrees=yes

Units are S.I. units (second, meters, Newtons, ...)
If the header above contains a line with 'inDegrees', this indicates whether rotational values are in degrees (yes) or radians (no).

endheader
time	pelvis_tilt	pelvis_list	pelvis_rotation	pelvis_tx	pelvis_ty	pelvis_tz	hip_flexion_r	hip_adduction_r	hip_rotation_r	knee_angle_r	knee_angle_r_beta	ankle_angle_r	subtalar_angle_r	mtp_angle_r	hip_flexion_l	hip_adduction_l	hip_rotation_l	knee_angle_l	knee_angle_l_beta	ankle_angle_l	subtalar_angle_l	mtp_angle_l	L5_S1_Flex_Ext	L5_S1_Lat_Bending	L5_S1_axial_rotation	L4_L5_Flex_Ext	L4_L5_Lat_Bending	L4_L5_axial_rotation	L3_L4_Flex_Ext	L3_L4_Lat_Bending	L3_L4_axial_rotation	L2_L3_Flex_Ext	L2_L3_Lat_Bending	L2_L3_axial_rotation	L1_L2_Flex_Ext	L1_L2_Lat_Bending	L1_L2_axial_rotation	L1_T12_Flex_Ext	L1_T12_Lat_Bending	L1_T12_axial_rotation	Abs_r3	Abs_r2	Abs_r1	Abs_t1	Abs_t2	neck_flexion	neck_bending	neck_rotation	arm_flex_r	arm_add_r	arm_rot_r	elbow_flex_r	pro_sup_r	wrist_flex_r	wrist_dev_r	arm_flex_l	arm_add_l	arm_rot_l	elbow_flex_l	pro_sup_l	wrist_flex_l	wrist_dev_l
      7.75800000	    -54.24941306	      2.39944103	      0.34679602	     -0.25607785	      1.01208835	      0.02770764	     99.82055537	     -3.47128859	      4.06223624	     89.86247177	      1.56839601	     -5.46247516	     -9.32754192	      0.00000000	    117.30540431	     -5.11559520	      2.57739162	     82.16592653	      1.43406595	      9.30388075	     -0.84137457	      0.00000000	     -0.08493315	     -0.58874201	     -0.28495934	     -0.15772936	     -0.78302688	     -0.30276930	     -0.13953667	     -1.43146733	     -0.30276930	     -0.09707010	     -1.43146733	     -0.24933942	     -0.07886892	     -1.20056271	     -0.23152946	     -0.04853080	     -0.91196138	     -0.21371951	     -0.60666901	     -6.65996740	     -1.58485836	      0.00000000	      0.00000000	     -0.00000000	      0.00000000	      0.00000000	     67.53116637	     -9.67426182	      6.34418690	     38.20160791	     53.83227791	      0.00000000	      5.00000014	     69.40786301	    -18.54929054	     21.21788697	     46.37195964	     56.14639212	      0.00000000	      5.00000014
      7.76700000	    -54.13061674	      2.71228880	      0.09716933	     -0.25591936	      1.01136671	      0.02856719	    101.32314581	     -3.26698015	      4.73732116	     93.37274028	      1.62966175	     -4.12170780	     -8.14319169	      0.00000000	    115.04280177	     -5.41692031	      1.89621409	     78.54582883	      1.37088333	      8.73651992	     -1.50182450	      0.00000000	     -0.08788384	     -0.62187684	     -0.27390207	     -0.16320907	     -0.82709620	     -0.29102095	     -0.14438436	     -1.51203136	     -0.29102095	     -0.10044244	     -1.51203136	     -0.23966431	     -0.08160893	     -1.26813126	     -0.22254543	     -0.05021682	     -0.96328723	     -0.20542655	     -0.62774546	     -7.03479524	     -1.52336115	      0.00000000	      0.00000000	     -0.00000000	      0.00000000	      0.00000000	     67.53844503	     -9.59118050	      7.05440371	     38.24249285	     53.94765237	      0.00000000	      5.00000014	     69.40804327	    -18.82046402	     21.13322395	     46.33714928	     56.17176374	      0.00000000	      5.00000014
      7.77500000	    -54.05017917	      2.46951377	     -0.76989143	     -0.25588570	      1.01077490	      0.02971000	    102.74627232	     -2.46104496	      4.67339739	     96.43115440	      1.68304115	     -3.43290451	     -8.00884327	      0.00000000	    112.97436307	     -6.01287424	      2.24049119	     75.09712065	      1.31069201	      8.04468740	     -1.51848914	      0.00000000	     -0.08617735	     -0.57605530	     -0.12925030	     -0.16003996	     -0.76615355	     -0.13732844	     -0.14158077	     -1.40062086	     -0.13732844	     -0.09849209	     -1.40062086	     -0.11309401	     -0.08002429	     -1.17469197	     -0.10501587	     -0.04924174	     -0.89230966	     -0.09693772	     -0.61555620	     -6.51645277	     -0.71885139	      0.00000000	      0.00000000	     -0.00000000	      0.00000000	      0.00000000	     67.63366341	     -9.60732147	      7.21061652	     38.23745037	     53.97380159	      0.00000000	      5.00000014	     69.21936791	    -18.93950485	     21.03177284	     46.39643306	     56.16830061	      0.00000000	      5.00000014
      7.78300000	    -53.94493781	      2.85350190	     -0.88559605	     -0.25561695	      1.01012743	      0.03005324	    104.33157477	     -2.40725828	      5.64278150	     99.77139710	      1.74133938	     -0.85913992	     -5.01392909	      0.00000000	    110.56835949	     -6.13504777	      1.41654505	     71.45948488	      1.24720329	      7.11104735	     -2.42496870	      0.00000000	     -0.08550802	     -0.61155542	     -0.14231846	     -0.15879694	     -0.81336871	     -0.15121336	     -0.14048112	     -1.48693586	     -0.15121336	     -0.09772711	     -1.48693586	     -0.12452865	     -0.07940274	     -1.24708382	     -0.11563375	     -0.04885928	     -0.94729935	     -0.10673884	     -0.61077522	     -6.91803726	     -0.79153257	      0.00000000	      0.00000000	     -0.00000000	      0.00000000	      0.00000000	     67.65291475	     -9.51246449	      8.01234430	     38.20986224	     54.12307943	      0.00000000	      5.00000014	     69.13302685	    -19.22978863	     20.72033768	     46.42080384	     56.21514872	      0.00000000	      5.00000014
      7.79200000	    -53.85476408	      2.56136498	     -1.74850550	     -0.25552355	      1.00967280	      0.03096187	    105.87859814	     -1.67956976	      5.36423197	    102.59718428	      1.79065867	     -0.20061825	     -5.00930162	      0.00000000	    108.45103364	     -6.79603460	      1.67795560	     68.22618668	      1.19077159	      6.37662873	     -2.19808889	      0.00000000	     -0.08652198	     -0.55627924	     -0.00009457	     -0.16067996	     -0.73985138	     -0.00010048	     -0.14214696	     -1.35253734	     -0.00010048	     -0.09888597	     -1.35253734	     -0.00008275	     -0.08034431	     -1.13436462	     -0.00007684	     -0.04943866	     -0.86167654	     -0.00007092	     -0.61801783	     -6.29274198	     -0.00052595	      0.00000000	      0.00000000	     -0.00000000	      0.00000000	      0.00000000	     67.77680690	     -9.46870701	      8.11717319	     38.23453283	     54.11320862	      0.00000000	      5.00000014	     68.92269227	    -19.32753584	     20.52439201	     46.50312999	     56.16511851	      0.00000000	      5.00000014
      7.80000000	    -53.77206811	      2.92184811	     -1.72503855	     -0.25508426	      1.00932389	      0.03104172	    107.61788957	     -1.77708607	      5.91683220	    105.57119189	      1.84256489	      1.34688626	     -4.24504464	      0.00000000	    105.94231120	     -6.82562292	      0.83842115	     64.67953154	      1.12887078	      5.95582221	     -1.99415520	      0.00000000	     -0.08363593	     -0.58736217	     -0.04007889	     -0.15532028	     -0.78119169	     -0.04258382	     -0.13740546	     -1.42811238	     -0.04258382	     -0.09558750	     -1.42811238	     -0.03506903	     -0.07766432	     -1.19774894	     -0.03256410	     -0.04778957	     -0.90982400	     -0.03005917	     -0.59740306	     -6.64435836	     -0.22290675	      0.00000000	      0.00000000	     -0.00000000	      0.00000000	      0.00000000	     67.78856316	     -9.22658005	      8.64834624	     38.14215190	     54.17391703	      0.00000000	      5.00000014	     68.63693132	    -19.47392537	     19.63628205	     46.55066779	     56.06013792	      0.00000000	      5.00000014
      7.80800000	    -53.67103590	      2.91658491	     -2.24099359	     -0.25471248	      1.00904331	      0.03145588	    109.29432796	     -1.38608602	      6.15811206	    108.21160377	      1.88864877	      3.20288225	     -2.29972920	      0.00000000	    103.65643069	     -7.31568195	      0.47753696	     61.59943425	      1.07511294	      5.39052399	     -1.58843768	      0.00000000	     -0.08365273	     -0.56602210	      0.03223025	     -0.15535149	     -0.75280939	      0.03424465	     -0.13743307	     -1.37622612	      0.03424465	     -0.09560671	     -1.37622612	      0.02820147	     -0.07767993	     -1.15423226	      0.02618708	     -0.04779917	     -0.87676823	      0.02417269	     -0.59752311	     -6.40295515	      0.17925501	      0.00000000	      0.00000000	     -0.00000000	      0.00000000	      0.00000000	     67.92590536	     -9.11338751	      9.09094185	     38.07062768	     54.22636078	      0.00000000	      5.00000014	     68.29202569	    -19.56869053	     18.97787468	     46.66144190	     56.00131897	      0.00000000	      5.00000014
      7.81700000	    -53.59557972	      2.56424600	     -2.92818951	     -0.25438105	      1.00893408	      0.03200245	    110.98165137	     -0.91873410	      5.65253473	    110.51140210	      1.92878783	      4.00761716	     -2.25643054	      0.00000000	    101.51161957	     -7.93707857	      0.48314432	     58.77619710	      1.02583816	      4.82405890	     -1.27838338	      0.00000000	     -0.08303727	     -0.50014598	      0.14782513	     -0.15420852	     -0.66519416	      0.15706420	     -0.13642194	     -1.21605494	      0.15706420	     -0.09490330	     -1.21605494	      0.12934699	     -0.07710841	     -1.01989769	      0.12010792	     -0.04744750	     -0.77472613	      0.11086885	     -0.59312695	     -5.65775138	      0.82215902	      0.00000000	      0.00000000	     -0.00000000	      0.00000000	      0.00000000	     68.07445000	     -9.01876315	      9.23943672	     38.02006749	     54.21545544	      0.00000000	      5.00000014	     68.00899251	    -19.63085800	     18.74381977	     46.64398812	     55.94086457	      0.00000000	      5.00000014
